<svg xmlns="http://www.w3.org/2000/svg" version="1.1" xmlns:xlink="http://www.w3.org/1999/xlink" xmlns:svgjs="http://svgjs.com/svgjs" width="1440" height="1000" preserveAspectRatio="none" viewBox="0 0 1440 1000"><g mask="url(&quot;#SvgjsMask1005&quot;)" fill="none"><rect width="1440" height="1000" x="0" y="0" fill="#0e2a47"></rect><path d="M137.35 74.48L202.31 111.98L202.31 186.98L137.35 224.48L72.4 186.98L72.4 111.98zM137.35 299.48L202.31 336.98L202.31 411.98L137.35 449.48L72.4 411.98L72.4 336.98zM72.4 636.98L137.35 674.48L137.35 749.48L72.4 786.98L7.45 749.48L7.45 674.48zM137.35 749.48L202.31 786.98L202.31 861.98L137.35 899.48L72.4 861.98L72.4 786.98zM267.26 299.48L332.22 336.98L332.22 411.98L267.26 449.48L202.31 411.98L202.31 336.98zM267.26 524.48L332.22 561.98L332.22 636.98L267.26 674.48L202.31 636.98L202.31 561.98zM267.26 749.48L332.22 786.98L332.22 861.98L267.26 899.48L202.31 861.98L202.31 786.98zM332.22 -38.02L397.17 -0.52L397.17 74.48L332.22 111.98L267.26 74.48L267.26 -0.52zM397.17 74.48L462.12 111.98L462.12 186.98L397.17 224.48L332.22 186.98L332.22 111.98zM397.17 299.48L462.12 336.98L462.12 411.98L397.17 449.48L332.22 411.98L332.22 336.98zM332.22 411.98L397.17 449.48L397.17 524.48L332.22 561.98L267.26 524.48L267.26 449.48zM397.17 749.48L462.12 786.98L462.12 861.98L397.17 899.48L332.22 861.98L332.22 786.98zM332.22 861.98L397.17 899.48L397.17 974.48L332.22 1011.98L267.26 974.48L267.26 899.48zM462.12 -38.02L527.08 -0.52L527.08 74.48L462.12 111.98L397.17 74.48L397.17 -0.52zM462.12 411.98L527.08 449.48L527.08 524.48L462.12 561.98L397.17 524.48L397.17 449.48zM462.12 636.98L527.08 674.48L527.08 749.48L462.12 786.98L397.17 749.48L397.17 674.48zM462.12 861.98L527.08 899.48L527.08 974.48L462.12 1011.98L397.17 974.48L397.17 899.48zM592.03 186.98L656.98 224.48L656.98 299.48L592.03 336.98L527.08 299.48L527.08 224.48zM656.98 974.48L721.94 1011.98L721.94 1086.98L656.98 1124.48L592.03 1086.98L592.03 1011.98zM721.94 411.98L786.89 449.48L786.89 524.48L721.94 561.98L656.98 524.48L656.98 449.48zM786.89 524.48L851.85 561.98L851.85 636.98L786.89 674.48L721.94 636.98L721.94 561.98zM721.94 636.98L786.89 674.48L786.89 749.48L721.94 786.98L656.98 749.48L656.98 674.48zM786.89 749.48L851.85 786.98L851.85 861.98L786.89 899.48L721.94 861.98L721.94 786.98zM916.8 74.48L981.75 111.98L981.75 186.98L916.8 224.48L851.84 186.98L851.84 111.98zM851.84 861.98L916.8 899.48L916.8 974.48L851.84 1011.98L786.89 974.48L786.89 899.48zM981.75 186.98L1046.71 224.48L1046.71 299.48L981.75 336.98L916.8 299.48L916.8 224.48zM981.75 411.98L1046.71 449.48L1046.71 524.48L981.75 561.98L916.8 524.48L916.8 449.48zM1046.71 524.48L1111.66 561.98L1111.66 636.98L1046.71 674.48L981.75 636.98L981.75 561.98zM981.75 636.98L1046.71 674.48L1046.71 749.48L981.75 786.98L916.8 749.48L916.8 674.48zM981.75 861.98L1046.71 899.48L1046.71 974.48L981.75 1011.98L916.8 974.48L916.8 899.48zM1046.71 974.48L1111.66 1011.98L1111.66 1086.98L1046.71 1124.48L981.75 1086.98L981.75 1011.98zM1111.66 186.98L1176.61 224.48L1176.61 299.48L1111.66 336.98L1046.71 299.48L1046.71 224.48zM1176.61 299.48L1241.57 336.98L1241.57 411.98L1176.61 449.48L1111.66 411.98L1111.66 336.98zM1111.66 411.98L1176.61 449.48L1176.61 524.48L1111.66 561.98L1046.71 524.48L1046.71 449.48zM1111.66 861.98L1176.61 899.48L1176.61 974.48L1111.66 1011.98L1046.71 974.48L1046.71 899.48zM1176.61 974.48L1241.57 1011.98L1241.57 1086.98L1176.61 1124.48L1111.66 1086.98L1111.66 1011.98zM1306.52 74.48L1371.47 111.98L1371.47 186.98L1306.52 224.48L1241.57 186.98L1241.57 111.98zM1241.57 186.98L1306.52 224.48L1306.52 299.48L1241.57 336.98L1176.61 299.48L1176.61 224.48zM1241.57 636.98L1306.52 674.48L1306.52 749.48L1241.57 786.98L1176.61 749.48L1176.61 674.48zM1306.52 749.48L1371.47 786.98L1371.47 861.98L1306.52 899.48L1241.57 861.98L1241.57 786.98zM1241.57 861.98L1306.52 899.48L1306.52 974.48L1241.57 1011.98L1176.61 974.48L1176.61 899.48zM1306.52 974.48L1371.47 1011.98L1371.47 1086.98L1306.52 1124.48L1241.57 1086.98L1241.57 1011.98zM1371.48 -38.02L1436.43 -0.52L1436.43 74.48L1371.48 111.98L1306.52 74.48L1306.52 -0.52zM1436.43 74.48L1501.38 111.98L1501.38 186.98L1436.43 224.48L1371.48 186.98L1371.48 111.98zM1436.43 524.48L1501.38 561.98L1501.38 636.98L1436.43 674.48L1371.48 636.98L1371.48 561.98zM1371.48 636.98L1436.43 674.48L1436.43 749.48L1371.48 786.98L1306.52 749.48L1306.52 674.48zM1371.48 861.98L1436.43 899.48L1436.43 974.48L1371.48 1011.98L1306.52 974.48L1306.52 899.48zM1436.43 974.48L1501.38 1011.98L1501.38 1086.98L1436.43 1124.48L1371.48 1086.98L1371.48 1011.98zM1501.38 -38.02L1566.34 -0.52L1566.34 74.48L1501.38 111.98L1436.43 74.48L1436.43 -0.52zM1501.38 186.98L1566.34 224.48L1566.34 299.48L1501.38 336.98L1436.43 299.48L1436.43 224.48zM1566.34 299.48L1631.29 336.98L1631.29 411.98L1566.34 449.48L1501.38 411.98L1501.38 336.98zM1566.34 524.48L1631.29 561.98L1631.29 636.98L1566.34 674.48L1501.38 636.98L1501.38 561.98zM1566.34 749.48L1631.29 786.98L1631.29 861.98L1566.34 899.48L1501.38 861.98L1501.38 786.98zM1501.38 861.98L1566.34 899.48L1566.34 974.48L1501.38 1011.98L1436.43 974.48L1436.43 899.48zM1566.34 974.48L1631.29 1011.98L1631.29 1086.98L1566.34 1124.48L1501.38 1086.98L1501.38 1011.98z" stroke="#03305d" stroke-width="2"></path><path d="M129.85 74.48 a7.5 7.5 0 1 0 15 0 a7.5 7.5 0 1 0 -15 0zM194.81 111.98 a7.5 7.5 0 1 0 15 0 a7.5 7.5 0 1 0 -15 0zM194.81 186.98 a7.5 7.5 0 1 0 15 0 a7.5 7.5 0 1 0 -15 0zM129.85 224.48 a7.5 7.5 0 1 0 15 0 a7.5 7.5 0 1 0 -15 0zM64.9 186.98 a7.5 7.5 0 1 0 15 0 a7.5 7.5 0 1 0 -15 0zM64.9 111.98 a7.5 7.5 0 1 0 15 0 a7.5 7.5 0 1 0 -15 0zM129.85 299.48 a7.5 7.5 0 1 0 15 0 a7.5 7.5 0 1 0 -15 0zM194.81 336.98 a7.5 7.5 0 1 0 15 0 a7.5 7.5 0 1 0 -15 0zM194.81 411.98 a7.5 7.5 0 1 0 15 0 a7.5 7.5 0 1 0 -15 0zM129.85 449.48 a7.5 7.5 0 1 0 15 0 a7.5 7.5 0 1 0 -15 0zM64.9 411.98 a7.5 7.5 0 1 0 15 0 a7.5 7.5 0 1 0 -15 0zM64.9 336.98 a7.5 7.5 0 1 0 15 0 a7.5 7.5 0 1 0 -15 0zM64.9 636.98 a7.5 7.5 0 1 0 15 0 a7.5 7.5 0 1 0 -15 0zM129.85 674.48 a7.5 7.5 0 1 0 15 0 a7.5 7.5 0 1 0 -15 0zM129.85 749.48 a7.5 7.5 0 1 0 15 0 a7.5 7.5 0 1 0 -15 0zM64.9 786.98 a7.5 7.5 0 1 0 15 0 a7.5 7.5 0 1 0 -15 0zM-0.05 749.48 a7.5 7.5 0 1 0 15 0 a7.5 7.5 0 1 0 -15 0zM-0.05 674.48 a7.5 7.5 0 1 0 15 0 a7.5 7.5 0 1 0 -15 0zM194.81 786.98 a7.5 7.5 0 1 0 15 0 a7.5 7.5 0 1 0 -15 0zM194.81 861.98 a7.5 7.5 0 1 0 15 0 a7.5 7.5 0 1 0 -15 0zM129.85 899.48 a7.5 7.5 0 1 0 15 0 a7.5 7.5 0 1 0 -15 0zM64.9 861.98 a7.5 7.5 0 1 0 15 0 a7.5 7.5 0 1 0 -15 0zM259.76 299.48 a7.5 7.5 0 1 0 15 0 a7.5 7.5 0 1 0 -15 0zM324.72 336.98 a7.5 7.5 0 1 0 15 0 a7.5 7.5 0 1 0 -15 0zM324.72 411.98 a7.5 7.5 0 1 0 15 0 a7.5 7.5 0 1 0 -15 0zM259.76 449.48 a7.5 7.5 0 1 0 15 0 a7.5 7.5 0 1 0 -15 0zM259.76 524.48 a7.5 7.5 0 1 0 15 0 a7.5 7.5 0 1 0 -15 0zM324.72 561.98 a7.5 7.5 0 1 0 15 0 a7.5 7.5 0 1 0 -15 0zM324.72 636.98 a7.5 7.5 0 1 0 15 0 a7.5 7.5 0 1 0 -15 0zM259.76 674.48 a7.5 7.5 0 1 0 15 0 a7.5 7.5 0 1 0 -15 0zM194.81 636.98 a7.5 7.5 0 1 0 15 0 a7.5 7.5 0 1 0 -15 0zM194.81 561.98 a7.5 7.5 0 1 0 15 0 a7.5 7.5 0 1 0 -15 0zM259.76 749.48 a7.5 7.5 0 1 0 15 0 a7.5 7.5 0 1 0 -15 0zM324.72 786.98 a7.5 7.5 0 1 0 15 0 a7.5 7.5 0 1 0 -15 0zM324.72 861.98 a7.5 7.5 0 1 0 15 0 a7.5 7.5 0 1 0 -15 0zM259.76 899.48 a7.5 7.5 0 1 0 15 0 a7.5 7.5 0 1 0 -15 0zM324.72 -38.02 a7.5 7.5 0 1 0 15 0 a7.5 7.5 0 1 0 -15 0zM389.67 -0.52 a7.5 7.5 0 1 0 15 0 a7.5 7.5 0 1 0 -15 0zM389.67 74.48 a7.5 7.5 0 1 0 15 0 a7.5 7.5 0 1 0 -15 0zM324.72 111.98 a7.5 7.5 0 1 0 15 0 a7.5 7.5 0 1 0 -15 0zM259.76 74.48 a7.5 7.5 0 1 0 15 0 a7.5 7.5 0 1 0 -15 0zM259.76 -0.52 a7.5 7.5 0 1 0 15 0 a7.5 7.5 0 1 0 -15 0zM454.62 111.98 a7.5 7.5 0 1 0 15 0 a7.5 7.5 0 1 0 -15 0zM454.62 186.98 a7.5 7.5 0 1 0 15 0 a7.5 7.5 0 1 0 -15 0zM389.67 224.48 a7.5 7.5 0 1 0 15 0 a7.5 7.5 0 1 0 -15 0zM324.72 186.98 a7.5 7.5 0 1 0 15 0 a7.5 7.5 0 1 0 -15 0zM389.67 299.48 a7.5 7.5 0 1 0 15 0 a7.5 7.5 0 1 0 -15 0zM454.62 336.98 a7.5 7.5 0 1 0 15 0 a7.5 7.5 0 1 0 -15 0zM454.62 411.98 a7.5 7.5 0 1 0 15 0 a7.5 7.5 0 1 0 -15 0zM389.67 449.48 a7.5 7.5 0 1 0 15 0 a7.5 7.5 0 1 0 -15 0zM389.67 524.48 a7.5 7.5 0 1 0 15 0 a7.5 7.5 0 1 0 -15 0zM389.67 749.48 a7.5 7.5 0 1 0 15 0 a7.5 7.5 0 1 0 -15 0zM454.62 786.98 a7.5 7.5 0 1 0 15 0 a7.5 7.5 0 1 0 -15 0zM454.62 861.98 a7.5 7.5 0 1 0 15 0 a7.5 7.5 0 1 0 -15 0zM389.67 899.48 a7.5 7.5 0 1 0 15 0 a7.5 7.5 0 1 0 -15 0zM389.67 974.48 a7.5 7.5 0 1 0 15 0 a7.5 7.5 0 1 0 -15 0zM324.72 1011.98 a7.5 7.5 0 1 0 15 0 a7.5 7.5 0 1 0 -15 0zM259.76 974.48 a7.5 7.5 0 1 0 15 0 a7.5 7.5 0 1 0 -15 0zM454.62 -38.02 a7.5 7.5 0 1 0 15 0 a7.5 7.5 0 1 0 -15 0zM519.58 -0.52 a7.5 7.5 0 1 0 15 0 a7.5 7.5 0 1 0 -15 0zM519.58 74.48 a7.5 7.5 0 1 0 15 0 a7.5 7.5 0 1 0 -15 0zM519.58 449.48 a7.5 7.5 0 1 0 15 0 a7.5 7.5 0 1 0 -15 0zM519.58 524.48 a7.5 7.5 0 1 0 15 0 a7.5 7.5 0 1 0 -15 0zM454.62 561.98 a7.5 7.5 0 1 0 15 0 a7.5 7.5 0 1 0 -15 0zM454.62 636.98 a7.5 7.5 0 1 0 15 0 a7.5 7.5 0 1 0 -15 0zM519.58 674.48 a7.5 7.5 0 1 0 15 0 a7.5 7.5 0 1 0 -15 0zM519.58 749.48 a7.5 7.5 0 1 0 15 0 a7.5 7.5 0 1 0 -15 0zM389.67 674.48 a7.5 7.5 0 1 0 15 0 a7.5 7.5 0 1 0 -15 0zM519.58 899.48 a7.5 7.5 0 1 0 15 0 a7.5 7.5 0 1 0 -15 0zM519.58 974.48 a7.5 7.5 0 1 0 15 0 a7.5 7.5 0 1 0 -15 0zM454.62 1011.98 a7.5 7.5 0 1 0 15 0 a7.5 7.5 0 1 0 -15 0zM584.53 186.98 a7.5 7.5 0 1 0 15 0 a7.5 7.5 0 1 0 -15 0zM649.48 224.48 a7.5 7.5 0 1 0 15 0 a7.5 7.5 0 1 0 -15 0zM649.48 299.48 a7.5 7.5 0 1 0 15 0 a7.5 7.5 0 1 0 -15 0zM584.53 336.98 a7.5 7.5 0 1 0 15 0 a7.5 7.5 0 1 0 -15 0zM519.58 299.48 a7.5 7.5 0 1 0 15 0 a7.5 7.5 0 1 0 -15 0zM519.58 224.48 a7.5 7.5 0 1 0 15 0 a7.5 7.5 0 1 0 -15 0zM649.48 974.48 a7.5 7.5 0 1 0 15 0 a7.5 7.5 0 1 0 -15 0zM714.44 1011.98 a7.5 7.5 0 1 0 15 0 a7.5 7.5 0 1 0 -15 0zM714.44 1086.98 a7.5 7.5 0 1 0 15 0 a7.5 7.5 0 1 0 -15 0zM649.48 1124.48 a7.5 7.5 0 1 0 15 0 a7.5 7.5 0 1 0 -15 0zM584.53 1086.98 a7.5 7.5 0 1 0 15 0 a7.5 7.5 0 1 0 -15 0zM584.53 1011.98 a7.5 7.5 0 1 0 15 0 a7.5 7.5 0 1 0 -15 0zM714.44 411.98 a7.5 7.5 0 1 0 15 0 a7.5 7.5 0 1 0 -15 0zM779.39 449.48 a7.5 7.5 0 1 0 15 0 a7.5 7.5 0 1 0 -15 0zM779.39 524.48 a7.5 7.5 0 1 0 15 0 a7.5 7.5 0 1 0 -15 0zM714.44 561.98 a7.5 7.5 0 1 0 15 0 a7.5 7.5 0 1 0 -15 0zM649.48 524.48 a7.5 7.5 0 1 0 15 0 a7.5 7.5 0 1 0 -15 0zM649.48 449.48 a7.5 7.5 0 1 0 15 0 a7.5 7.5 0 1 0 -15 0zM844.35 561.98 a7.5 7.5 0 1 0 15 0 a7.5 7.5 0 1 0 -15 0zM844.35 636.98 a7.5 7.5 0 1 0 15 0 a7.5 7.5 0 1 0 -15 0zM779.39 674.48 a7.5 7.5 0 1 0 15 0 a7.5 7.5 0 1 0 -15 0zM714.44 636.98 a7.5 7.5 0 1 0 15 0 a7.5 7.5 0 1 0 -15 0zM779.39 749.48 a7.5 7.5 0 1 0 15 0 a7.5 7.5 0 1 0 -15 0zM714.44 786.98 a7.5 7.5 0 1 0 15 0 a7.5 7.5 0 1 0 -15 0zM649.48 749.48 a7.5 7.5 0 1 0 15 0 a7.5 7.5 0 1 0 -15 0zM649.48 674.48 a7.5 7.5 0 1 0 15 0 a7.5 7.5 0 1 0 -15 0zM844.35 786.98 a7.5 7.5 0 1 0 15 0 a7.5 7.5 0 1 0 -15 0zM844.35 861.98 a7.5 7.5 0 1 0 15 0 a7.5 7.5 0 1 0 -15 0zM779.39 899.48 a7.5 7.5 0 1 0 15 0 a7.5 7.5 0 1 0 -15 0zM714.44 861.98 a7.5 7.5 0 1 0 15 0 a7.5 7.5 0 1 0 -15 0zM909.3 74.48 a7.5 7.5 0 1 0 15 0 a7.5 7.5 0 1 0 -15 0zM974.25 111.98 a7.5 7.5 0 1 0 15 0 a7.5 7.5 0 1 0 -15 0zM974.25 186.98 a7.5 7.5 0 1 0 15 0 a7.5 7.5 0 1 0 -15 0zM909.3 224.48 a7.5 7.5 0 1 0 15 0 a7.5 7.5 0 1 0 -15 0zM844.34 186.98 a7.5 7.5 0 1 0 15 0 a7.5 7.5 0 1 0 -15 0zM844.34 111.98 a7.5 7.5 0 1 0 15 0 a7.5 7.5 0 1 0 -15 0zM844.34 861.98 a7.5 7.5 0 1 0 15 0 a7.5 7.5 0 1 0 -15 0zM909.3 899.48 a7.5 7.5 0 1 0 15 0 a7.5 7.5 0 1 0 -15 0zM909.3 974.48 a7.5 7.5 0 1 0 15 0 a7.5 7.5 0 1 0 -15 0zM844.34 1011.98 a7.5 7.5 0 1 0 15 0 a7.5 7.5 0 1 0 -15 0zM779.39 974.48 a7.5 7.5 0 1 0 15 0 a7.5 7.5 0 1 0 -15 0zM1039.21 224.48 a7.5 7.5 0 1 0 15 0 a7.5 7.5 0 1 0 -15 0zM1039.21 299.48 a7.5 7.5 0 1 0 15 0 a7.5 7.5 0 1 0 -15 0zM974.25 336.98 a7.5 7.5 0 1 0 15 0 a7.5 7.5 0 1 0 -15 0zM909.3 299.48 a7.5 7.5 0 1 0 15 0 a7.5 7.5 0 1 0 -15 0zM974.25 411.98 a7.5 7.5 0 1 0 15 0 a7.5 7.5 0 1 0 -15 0zM1039.21 449.48 a7.5 7.5 0 1 0 15 0 a7.5 7.5 0 1 0 -15 0zM1039.21 524.48 a7.5 7.5 0 1 0 15 0 a7.5 7.5 0 1 0 -15 0zM974.25 561.98 a7.5 7.5 0 1 0 15 0 a7.5 7.5 0 1 0 -15 0zM909.3 524.48 a7.5 7.5 0 1 0 15 0 a7.5 7.5 0 1 0 -15 0zM909.3 449.48 a7.5 7.5 0 1 0 15 0 a7.5 7.5 0 1 0 -15 0zM1104.16 561.98 a7.5 7.5 0 1 0 15 0 a7.5 7.5 0 1 0 -15 0zM1104.16 636.98 a7.5 7.5 0 1 0 15 0 a7.5 7.5 0 1 0 -15 0zM1039.21 674.48 a7.5 7.5 0 1 0 15 0 a7.5 7.5 0 1 0 -15 0zM974.25 636.98 a7.5 7.5 0 1 0 15 0 a7.5 7.5 0 1 0 -15 0zM1039.21 749.48 a7.5 7.5 0 1 0 15 0 a7.5 7.5 0 1 0 -15 0zM974.25 786.98 a7.5 7.5 0 1 0 15 0 a7.5 7.5 0 1 0 -15 0zM909.3 749.48 a7.5 7.5 0 1 0 15 0 a7.5 7.5 0 1 0 -15 0zM909.3 674.48 a7.5 7.5 0 1 0 15 0 a7.5 7.5 0 1 0 -15 0zM974.25 861.98 a7.5 7.5 0 1 0 15 0 a7.5 7.5 0 1 0 -15 0zM1039.21 899.48 a7.5 7.5 0 1 0 15 0 a7.5 7.5 0 1 0 -15 0zM1039.21 974.48 a7.5 7.5 0 1 0 15 0 a7.5 7.5 0 1 0 -15 0zM974.25 1011.98 a7.5 7.5 0 1 0 15 0 a7.5 7.5 0 1 0 -15 0zM1104.16 1011.98 a7.5 7.5 0 1 0 15 0 a7.5 7.5 0 1 0 -15 0zM1104.16 1086.98 a7.5 7.5 0 1 0 15 0 a7.5 7.5 0 1 0 -15 0zM1039.21 1124.48 a7.5 7.5 0 1 0 15 0 a7.5 7.5 0 1 0 -15 0zM974.25 1086.98 a7.5 7.5 0 1 0 15 0 a7.5 7.5 0 1 0 -15 0zM1104.16 186.98 a7.5 7.5 0 1 0 15 0 a7.5 7.5 0 1 0 -15 0zM1169.11 224.48 a7.5 7.5 0 1 0 15 0 a7.5 7.5 0 1 0 -15 0zM1169.11 299.48 a7.5 7.5 0 1 0 15 0 a7.5 7.5 0 1 0 -15 0zM1104.16 336.98 a7.5 7.5 0 1 0 15 0 a7.5 7.5 0 1 0 -15 0zM1234.07 336.98 a7.5 7.5 0 1 0 15 0 a7.5 7.5 0 1 0 -15 0zM1234.07 411.98 a7.5 7.5 0 1 0 15 0 a7.5 7.5 0 1 0 -15 0zM1169.11 449.48 a7.5 7.5 0 1 0 15 0 a7.5 7.5 0 1 0 -15 0zM1104.16 411.98 a7.5 7.5 0 1 0 15 0 a7.5 7.5 0 1 0 -15 0zM1169.11 524.48 a7.5 7.5 0 1 0 15 0 a7.5 7.5 0 1 0 -15 0zM1104.16 861.98 a7.5 7.5 0 1 0 15 0 a7.5 7.5 0 1 0 -15 0zM1169.11 899.48 a7.5 7.5 0 1 0 15 0 a7.5 7.5 0 1 0 -15 0zM1169.11 974.48 a7.5 7.5 0 1 0 15 0 a7.5 7.5 0 1 0 -15 0zM1234.07 1011.98 a7.5 7.5 0 1 0 15 0 a7.5 7.5 0 1 0 -15 0zM1234.07 1086.98 a7.5 7.5 0 1 0 15 0 a7.5 7.5 0 1 0 -15 0zM1169.11 1124.48 a7.5 7.5 0 1 0 15 0 a7.5 7.5 0 1 0 -15 0zM1299.02 74.48 a7.5 7.5 0 1 0 15 0 a7.5 7.5 0 1 0 -15 0zM1363.97 111.98 a7.5 7.5 0 1 0 15 0 a7.5 7.5 0 1 0 -15 0zM1363.97 186.98 a7.5 7.5 0 1 0 15 0 a7.5 7.5 0 1 0 -15 0zM1299.02 224.48 a7.5 7.5 0 1 0 15 0 a7.5 7.5 0 1 0 -15 0zM1234.07 186.98 a7.5 7.5 0 1 0 15 0 a7.5 7.5 0 1 0 -15 0zM1234.07 111.98 a7.5 7.5 0 1 0 15 0 a7.5 7.5 0 1 0 -15 0zM1299.02 299.48 a7.5 7.5 0 1 0 15 0 a7.5 7.5 0 1 0 -15 0zM1234.07 636.98 a7.5 7.5 0 1 0 15 0 a7.5 7.5 0 1 0 -15 0zM1299.02 674.48 a7.5 7.5 0 1 0 15 0 a7.5 7.5 0 1 0 -15 0zM1299.02 749.48 a7.5 7.5 0 1 0 15 0 a7.5 7.5 0 1 0 -15 0zM1234.07 786.98 a7.5 7.5 0 1 0 15 0 a7.5 7.5 0 1 0 -15 0zM1169.11 749.48 a7.5 7.5 0 1 0 15 0 a7.5 7.5 0 1 0 -15 0zM1169.11 674.48 a7.5 7.5 0 1 0 15 0 a7.5 7.5 0 1 0 -15 0zM1363.97 786.98 a7.5 7.5 0 1 0 15 0 a7.5 7.5 0 1 0 -15 0zM1363.97 861.98 a7.5 7.5 0 1 0 15 0 a7.5 7.5 0 1 0 -15 0zM1299.02 899.48 a7.5 7.5 0 1 0 15 0 a7.5 7.5 0 1 0 -15 0zM1234.07 861.98 a7.5 7.5 0 1 0 15 0 a7.5 7.5 0 1 0 -15 0zM1299.02 974.48 a7.5 7.5 0 1 0 15 0 a7.5 7.5 0 1 0 -15 0zM1363.97 1011.98 a7.5 7.5 0 1 0 15 0 a7.5 7.5 0 1 0 -15 0zM1363.97 1086.98 a7.5 7.5 0 1 0 15 0 a7.5 7.5 0 1 0 -15 0zM1299.02 1124.48 a7.5 7.5 0 1 0 15 0 a7.5 7.5 0 1 0 -15 0zM1363.98 -38.02 a7.5 7.5 0 1 0 15 0 a7.5 7.5 0 1 0 -15 0zM1428.93 -0.52 a7.5 7.5 0 1 0 15 0 a7.5 7.5 0 1 0 -15 0zM1428.93 74.48 a7.5 7.5 0 1 0 15 0 a7.5 7.5 0 1 0 -15 0zM1363.98 111.98 a7.5 7.5 0 1 0 15 0 a7.5 7.5 0 1 0 -15 0zM1299.02 -0.52 a7.5 7.5 0 1 0 15 0 a7.5 7.5 0 1 0 -15 0zM1493.88 111.98 a7.5 7.5 0 1 0 15 0 a7.5 7.5 0 1 0 -15 0zM1493.88 186.98 a7.5 7.5 0 1 0 15 0 a7.5 7.5 0 1 0 -15 0zM1428.93 224.48 a7.5 7.5 0 1 0 15 0 a7.5 7.5 0 1 0 -15 0zM1363.98 186.98 a7.5 7.5 0 1 0 15 0 a7.5 7.5 0 1 0 -15 0zM1428.93 524.48 a7.5 7.5 0 1 0 15 0 a7.5 7.5 0 1 0 -15 0zM1493.88 561.98 a7.5 7.5 0 1 0 15 0 a7.5 7.5 0 1 0 -15 0zM1493.88 636.98 a7.5 7.5 0 1 0 15 0 a7.5 7.5 0 1 0 -15 0zM1428.93 674.48 a7.5 7.5 0 1 0 15 0 a7.5 7.5 0 1 0 -15 0zM1363.98 636.98 a7.5 7.5 0 1 0 15 0 a7.5 7.5 0 1 0 -15 0zM1363.98 561.98 a7.5 7.5 0 1 0 15 0 a7.5 7.5 0 1 0 -15 0zM1428.93 749.48 a7.5 7.5 0 1 0 15 0 a7.5 7.5 0 1 0 -15 0zM1363.98 786.98 a7.5 7.5 0 1 0 15 0 a7.5 7.5 0 1 0 -15 0zM1363.98 861.98 a7.5 7.5 0 1 0 15 0 a7.5 7.5 0 1 0 -15 0zM1428.93 899.48 a7.5 7.5 0 1 0 15 0 a7.5 7.5 0 1 0 -15 0zM1428.93 974.48 a7.5 7.5 0 1 0 15 0 a7.5 7.5 0 1 0 -15 0zM1363.98 1011.98 a7.5 7.5 0 1 0 15 0 a7.5 7.5 0 1 0 -15 0zM1493.88 1011.98 a7.5 7.5 0 1 0 15 0 a7.5 7.5 0 1 0 -15 0zM1493.88 1086.98 a7.5 7.5 0 1 0 15 0 a7.5 7.5 0 1 0 -15 0zM1428.93 1124.48 a7.5 7.5 0 1 0 15 0 a7.5 7.5 0 1 0 -15 0zM1363.98 1086.98 a7.5 7.5 0 1 0 15 0 a7.5 7.5 0 1 0 -15 0zM1493.88 -38.02 a7.5 7.5 0 1 0 15 0 a7.5 7.5 0 1 0 -15 0zM1558.84 -0.52 a7.5 7.5 0 1 0 15 0 a7.5 7.5 0 1 0 -15 0zM1558.84 74.48 a7.5 7.5 0 1 0 15 0 a7.5 7.5 0 1 0 -15 0zM1558.84 224.48 a7.5 7.5 0 1 0 15 0 a7.5 7.5 0 1 0 -15 0zM1558.84 299.48 a7.5 7.5 0 1 0 15 0 a7.5 7.5 0 1 0 -15 0zM1493.88 336.98 a7.5 7.5 0 1 0 15 0 a7.5 7.5 0 1 0 -15 0zM1428.93 299.48 a7.5 7.5 0 1 0 15 0 a7.5 7.5 0 1 0 -15 0zM1623.79 336.98 a7.5 7.5 0 1 0 15 0 a7.5 7.5 0 1 0 -15 0zM1623.79 411.98 a7.5 7.5 0 1 0 15 0 a7.5 7.5 0 1 0 -15 0zM1558.84 449.48 a7.5 7.5 0 1 0 15 0 a7.5 7.5 0 1 0 -15 0zM1493.88 411.98 a7.5 7.5 0 1 0 15 0 a7.5 7.5 0 1 0 -15 0zM1558.84 524.48 a7.5 7.5 0 1 0 15 0 a7.5 7.5 0 1 0 -15 0zM1623.79 561.98 a7.5 7.5 0 1 0 15 0 a7.5 7.5 0 1 0 -15 0zM1623.79 636.98 a7.5 7.5 0 1 0 15 0 a7.5 7.5 0 1 0 -15 0zM1558.84 674.48 a7.5 7.5 0 1 0 15 0 a7.5 7.5 0 1 0 -15 0zM1558.84 749.48 a7.5 7.5 0 1 0 15 0 a7.5 7.5 0 1 0 -15 0zM1623.79 786.98 a7.5 7.5 0 1 0 15 0 a7.5 7.5 0 1 0 -15 0zM1623.79 861.98 a7.5 7.5 0 1 0 15 0 a7.5 7.5 0 1 0 -15 0zM1558.84 899.48 a7.5 7.5 0 1 0 15 0 a7.5 7.5 0 1 0 -15 0zM1493.88 861.98 a7.5 7.5 0 1 0 15 0 a7.5 7.5 0 1 0 -15 0zM1493.88 786.98 a7.5 7.5 0 1 0 15 0 a7.5 7.5 0 1 0 -15 0zM1558.84 974.48 a7.5 7.5 0 1 0 15 0 a7.5 7.5 0 1 0 -15 0zM1623.79 1011.98 a7.5 7.5 0 1 0 15 0 a7.5 7.5 0 1 0 -15 0zM1623.79 1086.98 a7.5 7.5 0 1 0 15 0 a7.5 7.5 0 1 0 -15 0zM1558.84 1124.48 a7.5 7.5 0 1 0 15 0 a7.5 7.5 0 1 0 -15 0z" fill="#03305d"></path><path d="M5.9 127.68L49.2 152.68L49.2 202.68L5.9 227.68L-37.4 202.68L-37.4 152.68zM49.2 652.68L92.51 677.68L92.51 727.68L49.2 752.68L5.9 727.68L5.9 677.68zM5.9 877.68L49.2 902.68L49.2 952.68L5.9 977.68L-37.4 952.68L-37.4 902.68zM135.81 52.68L179.11 77.68L179.11 127.68L135.81 152.68L92.51 127.68L92.51 77.68zM92.51 127.68L135.81 152.68L135.81 202.68L92.51 227.68L49.2 202.68L49.2 152.68zM92.51 277.68L135.81 302.68L135.81 352.68L92.51 377.68L49.2 352.68L49.2 302.68zM135.81 352.68L179.11 377.68L179.11 427.68L135.81 452.68L92.51 427.68L92.51 377.68zM92.51 427.68L135.81 452.68L135.81 502.68L92.51 527.68L49.2 502.68L49.2 452.68zM179.11 -22.32L222.41 2.68L222.41 52.68L179.11 77.68L135.81 52.68L135.81 2.68zM179.11 127.68L222.41 152.68L222.41 202.68L179.11 227.68L135.81 202.68L135.81 152.68zM179.11 427.68L222.41 452.68L222.41 502.68L179.11 527.68L135.81 502.68L135.81 452.68zM265.71 127.68L309.02 152.68L309.02 202.68L265.71 227.68L222.41 202.68L222.41 152.68zM309.02 202.68L352.32 227.68L352.32 277.68L309.02 302.68L265.71 277.68L265.71 227.68zM309.02 352.68L352.32 377.68L352.32 427.68L309.02 452.68L265.71 427.68L265.71 377.68zM265.71 427.68L309.02 452.68L309.02 502.68L265.71 527.68L222.41 502.68L222.41 452.68zM309.02 652.68L352.32 677.68L352.32 727.68L309.02 752.68L265.71 727.68L265.71 677.68zM309.02 802.68L352.32 827.68L352.32 877.68L309.02 902.68L265.71 877.68L265.71 827.68zM395.62 352.68L438.93 377.68L438.93 427.68L395.62 452.68L352.32 427.68L352.32 377.68zM352.32 577.68L395.62 602.68L395.62 652.68L352.32 677.68L309.02 652.68L309.02 602.68zM395.62 652.68L438.93 677.68L438.93 727.68L395.62 752.68L352.32 727.68L352.32 677.68zM438.93 -22.32L482.23 2.68L482.23 52.68L438.93 77.68L395.62 52.68L395.62 2.68zM482.23 202.68L525.53 227.68L525.53 277.68L482.23 302.68L438.93 277.68L438.93 227.68zM482.23 652.68L525.53 677.68L525.53 727.68L482.23 752.68L438.93 727.68L438.93 677.68zM438.93 727.68L482.23 752.68L482.23 802.68L438.93 827.68L395.62 802.68L395.62 752.68zM482.23 802.68L525.53 827.68L525.53 877.68L482.23 902.68L438.93 877.68L438.93 827.68zM482.23 952.68L525.53 977.68L525.53 1027.68L482.23 1052.68L438.93 1027.68L438.93 977.68zM525.53 127.68L568.83 152.68L568.83 202.68L525.53 227.68L482.23 202.68L482.23 152.68zM525.53 577.68L568.83 602.68L568.83 652.68L525.53 677.68L482.23 652.68L482.23 602.68zM612.13 -22.32L655.44 2.68L655.44 52.68L612.13 77.68L568.83 52.68L568.83 2.68zM612.13 127.68L655.44 152.68L655.44 202.68L612.13 227.68L568.83 202.68L568.83 152.68zM655.44 652.68L698.74 677.68L698.74 727.68L655.44 752.68L612.13 727.68L612.13 677.68zM742.04 352.68L785.35 377.68L785.35 427.68L742.04 452.68L698.74 427.68L698.74 377.68zM698.74 877.68L742.04 902.68L742.04 952.68L698.74 977.68L655.44 952.68L655.44 902.68zM828.65 52.68L871.95 77.68L871.95 127.68L828.65 152.68L785.35 127.68L785.35 77.68zM785.35 277.68L828.65 302.68L828.65 352.68L785.35 377.68L742.04 352.68L742.04 302.68zM785.35 427.68L828.65 452.68L828.65 502.68L785.35 527.68L742.04 502.68L742.04 452.68zM785.35 577.68L828.65 602.68L828.65 652.68L785.35 677.68L742.04 652.68L742.04 602.68zM828.65 652.68L871.95 677.68L871.95 727.68L828.65 752.68L785.35 727.68L785.35 677.68zM785.35 727.68L828.65 752.68L828.65 802.68L785.35 827.68L742.04 802.68L742.04 752.68zM785.35 877.68L828.65 902.68L828.65 952.68L785.35 977.68L742.04 952.68L742.04 902.68zM871.95 427.68L915.25 452.68L915.25 502.68L871.95 527.68L828.65 502.68L828.65 452.68zM958.56 -22.32L1001.86 2.68L1001.86 52.68L958.56 77.68L915.25 52.68L915.25 2.68zM958.56 727.68L1001.86 752.68L1001.86 802.68L958.56 827.68L915.25 802.68L915.25 752.68zM1001.86 952.68L1045.16 977.68L1045.16 1027.68L1001.86 1052.68L958.56 1027.68L958.56 977.68zM1045.16 -22.32L1088.46 2.68L1088.46 52.68L1045.16 77.68L1001.86 52.68L1001.86 2.68zM1045.16 127.68L1088.46 152.68L1088.46 202.68L1045.16 227.68L1001.86 202.68L1001.86 152.68zM1088.46 352.68L1131.77 377.68L1131.77 427.68L1088.46 452.68L1045.16 427.68L1045.16 377.68zM1088.46 502.68L1131.77 527.68L1131.77 577.68L1088.46 602.68L1045.16 577.68L1045.16 527.68zM1088.46 652.68L1131.77 677.68L1131.77 727.68L1088.46 752.68L1045.16 727.68L1045.16 677.68zM1045.16 727.68L1088.46 752.68L1088.46 802.68L1045.16 827.68L1001.86 802.68L1001.86 752.68zM1088.46 952.68L1131.77 977.68L1131.77 1027.68L1088.46 1052.68L1045.16 1027.68L1045.16 977.68zM1131.77 277.68L1175.07 302.68L1175.07 352.68L1131.77 377.68L1088.46 352.68L1088.46 302.68zM1131.77 727.68L1175.07 752.68L1175.07 802.68L1131.77 827.68L1088.46 802.68L1088.46 752.68zM1261.67 202.68L1304.98 227.68L1304.98 277.68L1261.67 302.68L1218.37 277.68L1218.37 227.68zM1261.67 352.68L1304.98 377.68L1304.98 427.68L1261.67 452.68L1218.37 427.68L1218.37 377.68zM1218.37 577.68L1261.67 602.68L1261.67 652.68L1218.37 677.68L1175.07 652.68L1175.07 602.68zM1218.37 727.68L1261.67 752.68L1261.67 802.68L1218.37 827.68L1175.07 802.68L1175.07 752.68zM1348.28 502.68L1391.58 527.68L1391.58 577.68L1348.28 602.68L1304.98 577.68L1304.98 527.68zM1304.98 727.68L1348.28 752.68L1348.28 802.68L1304.98 827.68L1261.67 802.68L1261.67 752.68zM1391.58 -22.32L1434.88 2.68L1434.88 52.68L1391.58 77.68L1348.28 52.68L1348.28 2.68zM1391.58 277.68L1434.88 302.68L1434.88 352.68L1391.58 377.68L1348.28 352.68L1348.28 302.68zM1391.58 427.68L1434.88 452.68L1434.88 502.68L1391.58 527.68L1348.28 502.68L1348.28 452.68zM1434.88 652.68L1478.19 677.68L1478.19 727.68L1434.88 752.68L1391.58 727.68L1391.58 677.68zM1391.58 727.68L1434.88 752.68L1434.88 802.68L1391.58 827.68L1348.28 802.68L1348.28 752.68z" stroke="rgba(6, 80, 156, 0.93)" stroke-width="2"></path></g><defs><mask id="SvgjsMask1005"><rect width="1440" height="1000" fill="#ffffff"></rect></mask></defs></svg>